<svg xmlns="http://www.w3.org/2000/svg" viewBox="0 0 100 100">
  <rect width="100" height="100" rx="25" fill="#4f46e5" />
  <svg x="20" y="20" width="60" height="60" viewBox="0 0 24 24" fill="none" stroke="#ffffff" stroke-width="2" stroke-linecap="round" stroke-linejoin="round">
    <path d="M17 21v-4a2 2 0 0 0-2-2h-6a2 2 0 0 0-2 2v4"/>
    <path d="M7.4 15h9.2"/>
    <path d="M16 11c1.3 0 2.3-1 2.3-2.3 0-.6-.3-1.1-.7-1.5a3 3 0 0 0-.8-5.7c-2 0-3.6 1.6-3.6 3.6 0 .2.1.4.1.6a2.7 2.7 0 0 0-4.6 1.9c0 .6.3 1.1.7 1.5-1.3 0-2.3 1-2.3 2.3 0 1.3 1 2.3 2.3 2.3"/>
  </svg>
</svg>
